# xmcd
#
# Track frame offsets:
#	150
#	15429
#	30580
#	44013
#	61252
#	74878
#	93669
#	112283
#	125405
#	141162
#	154256
#	165487
#
# Disc length: 2457 seconds
#
# Revision: 1
# Processed by: cddbd v1.5.2PL0 Copyright (c) Steve Scherf et al.
# Submitted via: audiograbber 1.83.01
#
DISCID=ae09970c
DTITLE=Jean and Solange - L'un Pour L'autre
DYEAR=1900
DGENRE=Country
TTITLE0=Fleur De Papier (vf: Nicole Cloutier) (Splieldman/Torre)
TTITLE1=Passe Avec Moi La Nuit (Dani Daraiche)
TTITLE2=J'ai Besoin D'une Présence (vf:Brousseau)(McDill/Holyfield)
TTITLE3=Marie-Lune (Brousseau/Lussier)
TTITLE4=Chaque Seconde Chaque Minute (vf: Francois Daigneault) (Perry/Smith)
TTITLE5=Chaque Fois Que Tu L'aime (vf:Brousseau)(Rose/Bunch/Kennedy)
TTITLE6=Si On Pouvait Recommencer (vf:Renée Martel) (Don Gibson)
TTITLE7=Le Coeur En Larmes (vf:Brousseau) (Buck Owens)
TTITLE8=L'oiseau Sauvage (Daraiche)
TTITLE9=Mon Rêve (Daniel Roy)
TTITLE10=On Est Fait L'un Pour L'autre (vf:Jerry and Jo'anne) (Buck Owens)
TTITLE11=Me and Bobby McGee (Kristofferson/Foster)
EXTD=
EXTT0=
EXTT1=
EXTT2=
EXTT3=
EXTT4=
EXTT5=
EXTT6=
EXTT7=
EXTT8=
EXTT9=
EXTT10=
EXTT11=
PLAYORDER=
